<mxfile host="app.diagrams.net" modified="2024-07-02T21:38:59.745Z" agent="Mozilla/5.0 (Windows NT 10.0; Win64; x64) AppleWebKit/537.36 (KHTML, like Gecko) Chrome/126.0.0.0 Safari/537.36" etag="RHf793BwKnVfwKy6TsF4" version="24.6.4" type="device">
  <diagram name="Page-1" id="aJWLrVAE9EMMzHb-U5pa">
    <mxGraphModel dx="1050" dy="557" grid="1" gridSize="10" guides="1" tooltips="1" connect="1" arrows="1" fold="1" page="1" pageScale="1" pageWidth="827" pageHeight="1169" math="0" shadow="0">
      <root>
        <mxCell id="0" />
        <mxCell id="1" parent="0" />
        <mxCell id="4xLZIIHt0u2nFzGWx_ZE-4" style="edgeStyle=orthogonalEdgeStyle;rounded=0;orthogonalLoop=1;jettySize=auto;html=1;entryX=0;entryY=0.5;entryDx=0;entryDy=0;" edge="1" parent="1" source="4xLZIIHt0u2nFzGWx_ZE-1" target="4xLZIIHt0u2nFzGWx_ZE-2">
          <mxGeometry relative="1" as="geometry" />
        </mxCell>
        <mxCell id="4xLZIIHt0u2nFzGWx_ZE-5" style="edgeStyle=orthogonalEdgeStyle;rounded=0;orthogonalLoop=1;jettySize=auto;html=1;entryX=0;entryY=0.5;entryDx=0;entryDy=0;" edge="1" parent="1" source="4xLZIIHt0u2nFzGWx_ZE-1" target="4xLZIIHt0u2nFzGWx_ZE-3">
          <mxGeometry relative="1" as="geometry" />
        </mxCell>
        <mxCell id="4xLZIIHt0u2nFzGWx_ZE-1" value="Camera" style="rounded=1;whiteSpace=wrap;html=1;" vertex="1" parent="1">
          <mxGeometry x="10" y="160" width="90" height="40" as="geometry" />
        </mxCell>
        <mxCell id="4xLZIIHt0u2nFzGWx_ZE-7" value="" style="edgeStyle=orthogonalEdgeStyle;rounded=0;orthogonalLoop=1;jettySize=auto;html=1;" edge="1" parent="1" source="4xLZIIHt0u2nFzGWx_ZE-2" target="4xLZIIHt0u2nFzGWx_ZE-6">
          <mxGeometry relative="1" as="geometry" />
        </mxCell>
        <mxCell id="4xLZIIHt0u2nFzGWx_ZE-2" value="Depth Image" style="rounded=0;whiteSpace=wrap;html=1;" vertex="1" parent="1">
          <mxGeometry x="160" y="60" width="120" height="60" as="geometry" />
        </mxCell>
        <mxCell id="4xLZIIHt0u2nFzGWx_ZE-9" style="edgeStyle=orthogonalEdgeStyle;rounded=0;orthogonalLoop=1;jettySize=auto;html=1;" edge="1" parent="1" source="4xLZIIHt0u2nFzGWx_ZE-3" target="4xLZIIHt0u2nFzGWx_ZE-8">
          <mxGeometry relative="1" as="geometry" />
        </mxCell>
        <mxCell id="4xLZIIHt0u2nFzGWx_ZE-3" value="Intensity Image" style="rounded=0;whiteSpace=wrap;html=1;" vertex="1" parent="1">
          <mxGeometry x="160" y="230" width="120" height="60" as="geometry" />
        </mxCell>
        <mxCell id="4xLZIIHt0u2nFzGWx_ZE-10" style="edgeStyle=orthogonalEdgeStyle;rounded=0;orthogonalLoop=1;jettySize=auto;html=1;" edge="1" parent="1" source="4xLZIIHt0u2nFzGWx_ZE-6">
          <mxGeometry relative="1" as="geometry">
            <mxPoint x="420" y="260" as="targetPoint" />
          </mxGeometry>
        </mxCell>
        <mxCell id="4xLZIIHt0u2nFzGWx_ZE-12" value="" style="edgeStyle=orthogonalEdgeStyle;rounded=0;orthogonalLoop=1;jettySize=auto;html=1;" edge="1" parent="1" source="4xLZIIHt0u2nFzGWx_ZE-6" target="4xLZIIHt0u2nFzGWx_ZE-11">
          <mxGeometry relative="1" as="geometry" />
        </mxCell>
        <mxCell id="4xLZIIHt0u2nFzGWx_ZE-6" value="Background Substraction" style="whiteSpace=wrap;html=1;rounded=0;" vertex="1" parent="1">
          <mxGeometry x="360" y="60" width="120" height="60" as="geometry" />
        </mxCell>
        <mxCell id="4xLZIIHt0u2nFzGWx_ZE-16" value="" style="edgeStyle=orthogonalEdgeStyle;rounded=0;orthogonalLoop=1;jettySize=auto;html=1;" edge="1" parent="1" source="4xLZIIHt0u2nFzGWx_ZE-8" target="4xLZIIHt0u2nFzGWx_ZE-15">
          <mxGeometry relative="1" as="geometry" />
        </mxCell>
        <mxCell id="4xLZIIHt0u2nFzGWx_ZE-8" value="Intensity Image" style="rounded=0;whiteSpace=wrap;html=1;" vertex="1" parent="1">
          <mxGeometry x="550" y="230" width="120" height="60" as="geometry" />
        </mxCell>
        <mxCell id="4xLZIIHt0u2nFzGWx_ZE-14" value="" style="edgeStyle=orthogonalEdgeStyle;rounded=0;orthogonalLoop=1;jettySize=auto;html=1;" edge="1" parent="1" source="4xLZIIHt0u2nFzGWx_ZE-11" target="4xLZIIHt0u2nFzGWx_ZE-13">
          <mxGeometry relative="1" as="geometry" />
        </mxCell>
        <mxCell id="4xLZIIHt0u2nFzGWx_ZE-11" value="Depth Image" style="rounded=0;whiteSpace=wrap;html=1;" vertex="1" parent="1">
          <mxGeometry x="550" y="60" width="120" height="60" as="geometry" />
        </mxCell>
        <mxCell id="4xLZIIHt0u2nFzGWx_ZE-18" value="" style="edgeStyle=orthogonalEdgeStyle;rounded=0;orthogonalLoop=1;jettySize=auto;html=1;" edge="1" parent="1" source="4xLZIIHt0u2nFzGWx_ZE-13" target="4xLZIIHt0u2nFzGWx_ZE-17">
          <mxGeometry relative="1" as="geometry" />
        </mxCell>
        <mxCell id="4xLZIIHt0u2nFzGWx_ZE-13" value="Rule Based object detection and tracking" style="whiteSpace=wrap;html=1;rounded=0;" vertex="1" parent="1">
          <mxGeometry x="750" y="60" width="120" height="60" as="geometry" />
        </mxCell>
        <mxCell id="4xLZIIHt0u2nFzGWx_ZE-19" style="edgeStyle=orthogonalEdgeStyle;rounded=0;orthogonalLoop=1;jettySize=auto;html=1;" edge="1" parent="1" source="4xLZIIHt0u2nFzGWx_ZE-15">
          <mxGeometry relative="1" as="geometry">
            <mxPoint x="1020" y="220" as="targetPoint" />
          </mxGeometry>
        </mxCell>
        <mxCell id="4xLZIIHt0u2nFzGWx_ZE-15" value="YOLOv8 + StrongSORT" style="whiteSpace=wrap;html=1;rounded=0;" vertex="1" parent="1">
          <mxGeometry x="750" y="230" width="120" height="60" as="geometry" />
        </mxCell>
        <mxCell id="4xLZIIHt0u2nFzGWx_ZE-23" value="" style="edgeStyle=orthogonalEdgeStyle;rounded=0;orthogonalLoop=1;jettySize=auto;html=1;" edge="1" parent="1" source="4xLZIIHt0u2nFzGWx_ZE-17" target="4xLZIIHt0u2nFzGWx_ZE-22">
          <mxGeometry relative="1" as="geometry" />
        </mxCell>
        <mxCell id="4xLZIIHt0u2nFzGWx_ZE-17" value="Controlled Concatination" style="shape=parallelogram;perimeter=parallelogramPerimeter;whiteSpace=wrap;html=1;fixedSize=1;rounded=0;" vertex="1" parent="1">
          <mxGeometry x="940" y="140" width="150" height="70" as="geometry" />
        </mxCell>
        <mxCell id="4xLZIIHt0u2nFzGWx_ZE-42" style="edgeStyle=orthogonalEdgeStyle;rounded=0;orthogonalLoop=1;jettySize=auto;html=1;entryX=0;entryY=0.5;entryDx=0;entryDy=0;" edge="1" parent="1" source="4xLZIIHt0u2nFzGWx_ZE-22" target="4xLZIIHt0u2nFzGWx_ZE-41">
          <mxGeometry relative="1" as="geometry">
            <Array as="points">
              <mxPoint x="1210" y="320" />
            </Array>
          </mxGeometry>
        </mxCell>
        <mxCell id="4xLZIIHt0u2nFzGWx_ZE-22" value="Object position and ID" style="rounded=0;whiteSpace=wrap;html=1;" vertex="1" parent="1">
          <mxGeometry x="1150" y="145" width="120" height="60" as="geometry" />
        </mxCell>
        <mxCell id="4xLZIIHt0u2nFzGWx_ZE-26" value="" style="edgeStyle=orthogonalEdgeStyle;rounded=0;orthogonalLoop=1;jettySize=auto;html=1;" edge="1" parent="1" source="4xLZIIHt0u2nFzGWx_ZE-24" target="4xLZIIHt0u2nFzGWx_ZE-25">
          <mxGeometry relative="1" as="geometry" />
        </mxCell>
        <mxCell id="4xLZIIHt0u2nFzGWx_ZE-24" value="LiDAR" style="rounded=1;whiteSpace=wrap;html=1;" vertex="1" parent="1">
          <mxGeometry x="10" y="400" width="90" height="40" as="geometry" />
        </mxCell>
        <mxCell id="4xLZIIHt0u2nFzGWx_ZE-28" value="" style="edgeStyle=orthogonalEdgeStyle;rounded=0;orthogonalLoop=1;jettySize=auto;html=1;" edge="1" parent="1" source="4xLZIIHt0u2nFzGWx_ZE-25" target="4xLZIIHt0u2nFzGWx_ZE-27">
          <mxGeometry relative="1" as="geometry" />
        </mxCell>
        <mxCell id="4xLZIIHt0u2nFzGWx_ZE-25" value="Background Substraction" style="whiteSpace=wrap;html=1;rounded=0;" vertex="1" parent="1">
          <mxGeometry x="200" y="390" width="120" height="60" as="geometry" />
        </mxCell>
        <mxCell id="4xLZIIHt0u2nFzGWx_ZE-30" value="" style="edgeStyle=orthogonalEdgeStyle;rounded=0;orthogonalLoop=1;jettySize=auto;html=1;" edge="1" parent="1" source="4xLZIIHt0u2nFzGWx_ZE-27" target="4xLZIIHt0u2nFzGWx_ZE-29">
          <mxGeometry relative="1" as="geometry" />
        </mxCell>
        <mxCell id="4xLZIIHt0u2nFzGWx_ZE-27" value="Point Cloud" style="whiteSpace=wrap;html=1;rounded=0;" vertex="1" parent="1">
          <mxGeometry x="360" y="390" width="120" height="60" as="geometry" />
        </mxCell>
        <mxCell id="4xLZIIHt0u2nFzGWx_ZE-32" value="" style="edgeStyle=orthogonalEdgeStyle;rounded=0;orthogonalLoop=1;jettySize=auto;html=1;" edge="1" parent="1" source="4xLZIIHt0u2nFzGWx_ZE-29" target="4xLZIIHt0u2nFzGWx_ZE-31">
          <mxGeometry relative="1" as="geometry" />
        </mxCell>
        <mxCell id="4xLZIIHt0u2nFzGWx_ZE-29" value="Rule Based object detection and tracking" style="whiteSpace=wrap;html=1;rounded=0;" vertex="1" parent="1">
          <mxGeometry x="560" y="390" width="140" height="60" as="geometry" />
        </mxCell>
        <mxCell id="4xLZIIHt0u2nFzGWx_ZE-43" style="edgeStyle=orthogonalEdgeStyle;rounded=0;orthogonalLoop=1;jettySize=auto;html=1;entryX=0;entryY=0.5;entryDx=0;entryDy=0;" edge="1" parent="1" source="4xLZIIHt0u2nFzGWx_ZE-31" target="4xLZIIHt0u2nFzGWx_ZE-41">
          <mxGeometry relative="1" as="geometry">
            <mxPoint x="1380" y="320" as="targetPoint" />
            <Array as="points">
              <mxPoint x="1210" y="320" />
            </Array>
          </mxGeometry>
        </mxCell>
        <mxCell id="4xLZIIHt0u2nFzGWx_ZE-31" value="Object position and ID" style="rounded=0;whiteSpace=wrap;html=1;" vertex="1" parent="1">
          <mxGeometry x="1150" y="390" width="120" height="60" as="geometry" />
        </mxCell>
        <mxCell id="4xLZIIHt0u2nFzGWx_ZE-35" value="" style="edgeStyle=orthogonalEdgeStyle;rounded=0;orthogonalLoop=1;jettySize=auto;html=1;" edge="1" parent="1" source="4xLZIIHt0u2nFzGWx_ZE-33" target="4xLZIIHt0u2nFzGWx_ZE-34">
          <mxGeometry relative="1" as="geometry" />
        </mxCell>
        <mxCell id="4xLZIIHt0u2nFzGWx_ZE-33" value="Robot Controls" style="rounded=1;whiteSpace=wrap;html=1;" vertex="1" parent="1">
          <mxGeometry x="1380" y="20" width="120" height="60" as="geometry" />
        </mxCell>
        <mxCell id="4xLZIIHt0u2nFzGWx_ZE-44" value="" style="edgeStyle=orthogonalEdgeStyle;rounded=0;orthogonalLoop=1;jettySize=auto;html=1;" edge="1" parent="1" source="4xLZIIHt0u2nFzGWx_ZE-34" target="4xLZIIHt0u2nFzGWx_ZE-41">
          <mxGeometry relative="1" as="geometry" />
        </mxCell>
        <mxCell id="4xLZIIHt0u2nFzGWx_ZE-34" value="Danger Zone Calculation" style="rounded=0;whiteSpace=wrap;html=1;" vertex="1" parent="1">
          <mxGeometry x="1380" y="120" width="120" height="60" as="geometry" />
        </mxCell>
        <mxCell id="4xLZIIHt0u2nFzGWx_ZE-45" style="edgeStyle=orthogonalEdgeStyle;rounded=0;orthogonalLoop=1;jettySize=auto;html=1;entryX=1;entryY=0.5;entryDx=0;entryDy=0;" edge="1" parent="1" source="4xLZIIHt0u2nFzGWx_ZE-41" target="4xLZIIHt0u2nFzGWx_ZE-33">
          <mxGeometry relative="1" as="geometry">
            <Array as="points">
              <mxPoint x="1570" y="320" />
              <mxPoint x="1570" y="50" />
            </Array>
          </mxGeometry>
        </mxCell>
        <mxCell id="4xLZIIHt0u2nFzGWx_ZE-41" value="Robot Action Evaluation" style="rounded=0;whiteSpace=wrap;html=1;" vertex="1" parent="1">
          <mxGeometry x="1380" y="290" width="120" height="60" as="geometry" />
        </mxCell>
      </root>
    </mxGraphModel>
  </diagram>
</mxfile>
